<?xml version="1.0" encoding="iso-8859-1"?>
<!-- Generator: Adobe Illustrator 17.1.0, SVG Export Plug-In . SVG Version: 6.00 Build 0)  -->
<!DOCTYPE svg PUBLIC "-//W3C//DTD SVG 1.1//EN" "http://www.w3.org/Graphics/SVG/1.1/DTD/svg11.dtd">
<svg version="1.1" id="Capa_1" xmlns="http://www.w3.org/2000/svg" xmlns:xlink="http://www.w3.org/1999/xlink" x="0px" y="0px"
	 viewBox="0 0 357.984 357.984" style="enable-background:new 0 0 357.984 357.984;" xml:space="preserve">
<g>
	<path d="M190.074,312.996H167.91c-1.626,0-3,1.374-3,3v15c0,1.626,1.374,3,3,3h22.164c1.626,0,3-1.374,3-3v-15
		C193.074,314.37,191.7,312.996,190.074,312.996z"/>
	<path d="M274.736,0H83.248c-11.028,0-20,8.972-20,20v317.984c0,11.028,8.972,20,20,20h191.488c11.028,0,20-8.972,20-20V20
		C294.736,8.972,285.764,0,274.736,0z M162.825,16.281h32.334c2.762,0,5,2.239,5,5s-2.238,5-5,5h-32.334c-2.762,0-5-2.239-5-5
		S160.063,16.281,162.825,16.281z M203.074,330.996c0,7.168-5.832,13-13,13H167.91c-7.168,0-13-5.832-13-13v-15
		c0-7.168,5.832-13,13-13h22.164c7.168,0,13,5.832,13,13V330.996z M270.995,286.281c0,2.75-2.25,5-5,5H91.989c-2.75,0-5-2.25-5-5
		v-241c0-2.75,2.25-5,5-5h174.007c2.75,0,5,2.25,5,5V286.281z"/>
	<path d="M240.283,94.131l-32.602,30.109c-4.464-4.631-9.691-8.058-15.442-10.089c-1.468-5.95-6.851-10.375-13.247-10.375
		c-6.397,0-11.78,4.426-13.247,10.376c-7.53,2.658-14.172,7.695-19.362,14.721c-7.892,10.68-11.067,23.547-12.349,32.514
		c-0.015,0.111-0.027,0.218-0.035,0.304c-0.079,0.784-0.158,1.615-0.239,2.49c-0.489,5.2-1.399,14.879-3.575,18.36l-0.189,0.322
		c-0.462,0.831-1.629,1.855-2.863,2.937c-3.156,2.767-10.111,8.871-6.689,19.007l-16.311,15.063
		c-4.058,3.747-4.31,10.073-0.563,14.131c1.972,2.134,4.656,3.215,7.35,3.215c2.426,0,4.858-0.878,6.781-2.654l23.426-21.635h87.264
		c3.165,0,6.066-1.732,7.573-4.523c6.629-12.309-1.598-19.523-5.113-22.605c-1.234-1.082-2.4-2.103-2.854-2.919
		c-0.062-0.112-0.128-0.225-0.233-0.398c-2.14-3.424-3.05-13.103-3.539-18.305c-0.082-0.872-0.16-1.705-0.237-2.465
		c-0.01-0.107-0.022-0.214-0.045-0.378c-0.8-5.598-2.352-12.754-5.348-19.95l35.258-32.561c4.058-3.747,4.31-10.074,0.563-14.131
		C250.666,90.636,244.341,90.383,240.283,94.131z"/>
	<path d="M190.215,220.149h-22.855c-1.577,0-3.063,0.691-4.074,1.895c-1.772,2.11-1.316,4.706-1.082,6.046
		c1.425,8.163,8.48,14.088,16.776,14.088c8.451,0,15.701-6.305,16.869-14.672c0.15-0.794,0.608-3.208-1.136-5.311
		C193.62,220.876,192.022,220.149,190.215,220.149z"/>
</g>
<g>
</g>
<g>
</g>
<g>
</g>
<g>
</g>
<g>
</g>
<g>
</g>
<g>
</g>
<g>
</g>
<g>
</g>
<g>
</g>
<g>
</g>
<g>
</g>
<g>
</g>
<g>
</g>
<g>
</g>
</svg>
